<?xml version="1.0" standalone="no"?>
<!DOCTYPE svg PUBLIC "-//W3C//DTD SVG 20010904//EN"
 "http://www.w3.org/TR/2001/REC-SVG-20010904/DTD/svg10.dtd">
<svg version="1.0" xmlns="http://www.w3.org/2000/svg"
 width="967.000000pt" height="967.000000pt" viewBox="0 0 967.000000 967.000000"
 preserveAspectRatio="xMidYMid meet">
<metadata>
Created by potrace 1.14, written by Peter Selinger 2001-2017
</metadata>
<g transform="translate(0.000000,967.000000) scale(0.100000,-0.100000)"
fill="#000000" stroke="none">
<path d="M1431 9638 c-9 -31 -15 -57 -26 -118 -3 -14 -93 -464 -201 -1000
-221 -1098 -222 -1105 -170 -1212 41 -85 120 -148 241 -192 85 -31 169 -33
1862 -33 934 -1 1720 -4 1745 -7 188 -26 301 -130 300 -276 0 -42 -65 -385
-186 -990 -102 -509 -188 -936 -192 -949 -5 -23 -7 -22 -30 20 -48 83 -122
145 -222 181 l-57 22 -1745 2 c-1216 1 -1761 5 -1796 12 -203 44 -296 147
-280 312 6 54 4 69 -8 80 -22 18 -65 4 -71 -23 -5 -20 -120 -596 -132 -657 -2
-14 -38 -191 -79 -395 -41 -203 -76 -381 -79 -395 -2 -14 -34 -173 -71 -355
-57 -286 -65 -340 -61 -407 9 -148 99 -252 264 -307 34 -11 83 -24 110 -27 26
-4 824 -8 1773 -9 1388 -1 1735 -4 1775 -15 83 -21 151 -58 193 -104 63 -68
76 -147 48 -283 -8 -38 -17 -80 -19 -93 -3 -14 -19 -95 -36 -181 -17 -85 -34
-166 -36 -180 -3 -13 -12 -58 -20 -99 -8 -41 -16 -84 -19 -95 -3 -15 -64 -321
-92 -460 -2 -11 -47 -234 -99 -495 -114 -566 -117 -602 -51 -714 49 -84 140
-142 274 -177 73 -18 119 -19 1231 -18 636 0 1188 5 1226 9 39 5 92 12 119 15
174 20 387 63 574 116 635 179 1101 496 1380 940 63 99 145 280 185 404 38
117 482 2319 512 2535 9 63 18 129 21 145 14 78 12 524 -2 635 -62 487 -265
864 -609 1135 -256 201 -599 337 -985 391 -25 4 -557 8 -1182 9 -1228 4 -1194
2 -1306 56 -65 32 -120 94 -138 157 -19 65 -17 85 36 347 22 110 42 209 44
220 5 26 67 336 71 355 1 8 22 110 45 225 23 116 43 217 45 225 2 8 20 98 40
200 20 102 38 192 40 200 2 8 24 122 50 252 l47 238 -15 74 c-36 178 -132 293
-288 347 l-64 22 -1745 2 c-1433 1 -1755 3 -1800 14 -126 31 -205 83 -241 158
-18 37 -22 62 -21 132 1 91 -7 111 -43 111 -18 0 -26 -8 -34 -32z m3464 -5378
c52 -36 131 -66 210 -82 42 -8 325 -12 955 -13 492 0 911 -5 930 -9 125 -29
217 -127 254 -270 19 -71 18 -78 -47 -401 -19 -93 -37 -181 -40 -195 -71 -365
-161 -791 -176 -835 -41 -118 -118 -206 -220 -254 l-56 -26 -1005 0 -1005 0
-64 23 c-133 48 -198 120 -208 229 -4 47 13 146 87 518 51 253 93 467 95 475
2 8 38 188 80 400 42 212 78 392 80 400 2 8 9 44 16 79 l12 64 30 -37 c16 -20
49 -50 72 -66z"/>
</g>
</svg>
